<?xml version="1.0" standalone="no"?>
<!DOCTYPE svg PUBLIC "-//W3C//DTD SVG 20010904//EN"
 "http://www.w3.org/TR/2001/REC-SVG-20010904/DTD/svg10.dtd">
<svg version="1.0" xmlns="http://www.w3.org/2000/svg"
 width="512.000000pt" height="512.000000pt" viewBox="0 0 512.000000 512.000000"
 preserveAspectRatio="xMidYMid meet">
<metadata>
Created by potrace 1.16, written by Peter Selinger 2001-2019
</metadata>
<g transform="translate(0.000000,512.000000) scale(0.100000,-0.100000)"
fill="#000000" stroke="none">
<path d="M180 4940 c-19 -19 -20 -33 -20 -420 0 -387 1 -401 20 -420 19 -19
33 -20 218 -20 l197 0 183 -183 182 -182 0 -56 c0 -68 20 -138 55 -191 l26
-39 -28 -22 c-85 -65 -163 -182 -197 -296 -24 -81 -21 -232 5 -317 40 -131
131 -248 244 -316 l55 -33 0 -122 c0 -167 -5 -163 180 -163 l140 0 0 -200 0
-200 -620 0 c-607 0 -620 0 -640 -20 -19 -19 -20 -33 -20 -220 0 -187 1 -201
20 -220 20 -20 33 -20 800 -20 l780 0 0 -222 0 -223 338 -337 337 -338 603 0
c589 0 602 0 622 20 19 19 20 33 20 380 0 347 -1 361 -20 380 -18 18 -33 20
-178 20 l-157 0 -160 160 -160 160 958 0 c944 0 957 0 977 20 19 19 20 33 20
220 0 187 -1 201 -20 220 -20 20 -33 20 -640 20 l-620 0 0 382 0 383 -338 337
-337 338 159 0 160 0 298 297 298 298 290 -290 290 -290 62 63 63 62 -210 210
-210 210 160 160 160 160 197 0 c185 0 199 1 218 20 19 19 20 33 20 420 0 387
-1 401 -20 420 -20 20 -33 20 -622 20 l-603 0 -257 -258 -258 -257 0 -223 0
-222 -62 0 -63 0 -337 -338 c-338 -337 -338 -337 -338 -380 0 -29 6 -48 20
-62 19 -19 33 -20 258 -20 l238 0 -178 -177 -178 -177 -178 177 c-176 175
-179 177 -222 177 -41 0 -47 -4 -141 -97 -91 -89 -99 -95 -99 -69 0 44 -47
173 -84 229 -36 56 -85 110 -129 144 l-28 22 26 39 c15 22 33 61 41 88 18 60
17 197 -1 249 l-14 40 174 176 c174 174 175 176 175 219 l0 45 -338 337 -337
338 -603 0 c-589 0 -602 0 -622 -20z m1415 -420 l280 -280 -125 -125 -124
-124 -31 20 c-16 11 -44 27 -62 35 -17 7 -35 19 -38 24 -4 6 18 38 49 70 50
52 56 63 56 101 0 42 -4 47 -138 181 -136 136 -139 138 -182 138 -43 0 -46 -2
-182 -138 -135 -135 -138 -139 -138 -181 0 -41 5 -48 86 -131 l85 -88 -57 -56
-57 -57 -167 165 -166 166 -182 0 -182 0 0 280 0 280 498 0 497 0 280 -280z
m3205 0 l0 -280 -182 0 -182 0 -178 -177 -177 -177 -59 56 -58 56 98 99 c94
96 98 102 98 144 0 42 -3 46 -138 181 -136 136 -139 138 -182 138 -43 0 -46
-2 -182 -138 l-138 -138 0 -142 0 -142 -80 0 -80 0 0 177 0 178 222 222 223
223 497 0 498 0 0 -280z m-3460 -225 l54 -54 -56 -59 -57 -59 -57 58 -58 59
54 55 c30 30 57 55 60 55 3 0 30 -25 60 -55z m2560 0 l54 -55 -97 -98 c-62
-63 -97 -107 -97 -121 0 -18 -6 -21 -40 -21 l-40 0 0 97 0 98 77 77 c43 43 80
78 83 78 3 0 30 -25 60 -55z m-2452 -401 c85 -35 142 -120 142 -214 0 -73 -25
-124 -89 -182 -43 -39 -51 -53 -51 -82 0 -54 8 -64 81 -102 132 -69 209 -186
217 -326 8 -138 1 -153 -164 -319 l-144 -146 0 -101 0 -102 -80 0 -80 0 0 113
c0 131 2 128 -97 177 -74 37 -145 111 -181 188 -24 50 -27 69 -27 162 0 92 3
112 26 160 38 80 107 151 188 194 73 38 81 48 81 102 0 29 -8 43 -51 82 -64
58 -89 109 -89 182 0 130 99 229 228 230 29 0 69 -7 90 -16z m2027 -294 l-240
-240 -275 0 -275 0 240 240 240 240 275 0 275 0 -240 -240z m-1175 -745 l135
-135 -80 -80 -80 -80 -275 0 -275 0 215 215 c118 118 217 215 220 215 3 0 66
-61 140 -135z m942 -142 l278 -278 0 -337 0 -338 -120 0 -120 0 0 380 c0 367
-1 381 -20 400 -19 19 -33 20 -300 20 -267 0 -281 -1 -300 -20 -19 -19 -20
-33 -20 -400 l0 -380 -120 0 -120 0 0 337 0 338 277 277 c153 153 280 278 283
278 3 0 130 -125 282 -277z m-1002 -633 l0 -320 -320 0 -320 0 0 320 0 320
320 0 320 0 0 -320z m880 0 l0 -320 -160 0 -160 0 0 320 0 320 160 0 160 0 0
-320z m-2160 -560 l0 -80 -320 0 -320 0 0 80 0 80 320 0 320 0 0 -80z m3840 0
l0 -80 -1840 0 -1840 0 0 80 0 80 1840 0 1840 0 0 -80z m-2720 -382 l0 -142
218 -218 218 -218 44 0 c44 0 46 2 182 138 135 135 138 139 138 181 0 42 -4
48 -97 143 l-97 99 57 57 57 57 218 -218 218 -217 142 0 142 0 0 -240 0 -240
-497 0 -498 0 -302 302 -303 303 0 177 0 178 80 0 80 0 0 -142z m457 83 c-51
-53 -57 -64 -57 -102 0 -40 5 -47 97 -141 l97 -99 -57 -57 -57 -57 -160 160
-160 160 0 97 0 98 177 0 176 0 -56 -59z"/>
</g>
</svg>
