<?xml version="1.0" encoding="UTF-8"?>
<svg version="1.1" xmlns="http://www.w3.org/2000/svg" width="700" height="304">
<path d="M0 0 C4.50559912 5.30474424 4.50559912 5.30474424 11.9609375 10.6015625 C32.17899745 26.72391443 39.46977643 40.02633357 39.83984375 66.25390625 C39.96927368 69.9974646 39.96927368 69.9974646 40.10131836 73.81665039 C38.96494111 104.83705648 8.63562233 100.86264617 9.62379456 69.3026123 C9.90380149 63.77749318 10.29184544 58.26984241 10.71484375 52.75390625 C13.11316737 20.36213926 -2.08169989 5.83103718 -14.72265625 43.75390625 C-14.56546974 47.35364388 -14.35716206 50.95119434 -14.125 54.546875 C-13.96883206 59.01167624 -13.81394246 63.47652234 -13.66015625 67.94140625 C-13.48548828 70.21724609 -13.31082031 72.49308594 -13.13085938 74.83789062 C-12.64577883 99.01227758 -42.68248153 103.665843 -44.5078125 78.91015625 C-44.39920829 73.35391109 -44.15070899 67.79917688 -43.78515625 62.25390625 C-43.72650391 59.45921875 -43.66785156 56.66453125 -43.60742188 53.78515625 C-42.81322406 31.30989836 -42.81322406 31.30989836 -34.72265625 23.75390625 C-32.52222656 21.46324219 -30.32179688 19.17257813 -28.0546875 16.8125 C-25.55106756 14.2692867 -23.04447754 11.72899435 -20.53515625 9.19140625 C-19.26478516 7.88365234 -17.99441406 6.57589844 -16.68554688 5.22851562 C-5.27568748 -6.28995164 -5.27568748 -6.28995164 0 0 Z " fill="#414042" transform="translate(370.72265625,102.24609375)"/>
<path d="M0 0 C1.32 0.66 2.64 1.32 4 2 C35.14706674 33.14706674 -20.97785151 70.592471 -45 48 C-49.05347996 35.24510453 -49.45685156 22.74791494 -49.625 9.5 C-49.70000732 7.65866486 -49.77501465 5.81732971 -49.85229492 3.92019653 C-51.51166605 -50.31017097 13.35377899 -33.38444748 0 0 Z M-24.3125 -1.8125 C-14.85533784 -3.01844685 -4.15184504 -7.15184504 -14 -17 C-30.26672493 -18.78409241 -47.00226354 -4.91397847 -24.3125 -1.8125 Z M-8 36 C18.23770685 20.25737589 -10.83525804 7.36278505 -27.40625 7.171875 C-52.27815593 15.30040292 -30.11023883 40.61052849 -8 36 Z " fill="#414042" transform="translate(121,146)"/>
<path d="M0 0 C1.23169922 1.94003906 2.46339844 3.88007813 3.73242188 5.87890625 C4.96669922 7.93238281 6.20097656 9.98585937 7.47265625 12.1015625 C9.98172415 16.10940423 12.49083726 20.11721765 15 24.125 C16.08917725 25.91599121 17.17835449 27.70698242 18.30053711 29.55224609 C19.36796143 31.25977051 20.43538574 32.96729492 21.53515625 34.7265625 C22.81430908 36.81871094 24.09346191 38.91085938 25.41137695 41.06640625 C31.69089782 48.42416919 29.19002907 38.86648292 29.05078125 33.890625 C29.02371094 31.42207031 28.99664062 28.95351562 28.96875 26.41015625 C28.84723495 21.07642132 28.70945363 15.74302993 28.5546875 10.41015625 C28.53277344 7.92871094 28.51085937 5.44726562 28.48828125 2.890625 C28.39788574 -0.59830322 28.39788574 -0.59830322 28.30566406 -4.15771484 C32.9448712 -23.46072247 41.98034016 -1.17831458 42.03125 7.5703125 C42.05059349 10.13395569 42.05059349 10.13395569 42.07032776 12.74938965 C42.08223187 16.37444344 42.06596166 19.99967928 42.02416992 23.62451172 C41.97285201 29.20527349 42.04388374 34.77527675 42.12695312 40.35546875 C42.12327884 43.86459886 42.11245251 47.3737303 42.09375 50.8828125 C42.08657959 54.10869141 42.07940918 57.33457031 42.07202148 60.65820312 C38.40840081 77.50794827 25.9894971 65.79846412 20.53515625 56.7265625 C19.09398437 54.59703125 17.6528125 52.4675 16.16796875 50.2734375 C14.68039062 48.03046875 13.1928125 45.7875 11.66015625 43.4765625 C10.17773438 41.24390625 8.6953125 39.01125 7.16796875 36.7109375 C2.53515625 29.7265625 2.53515625 29.7265625 -0.25170898 24.62670898 C-13.3078343 1.68248027 -7.86624964 38.1192199 -7.45507812 48.15429688 C-7.41318359 50.61318359 -7.37128906 53.07207031 -7.328125 55.60546875 C-7.19337769 59.07929077 -7.19337769 59.07929077 -7.0559082 62.62329102 C-12.42621628 82.07495445 -23.16129601 60.89534227 -23.2265625 50.8828125 C-23.24137161 49.17371704 -23.25618073 47.46462158 -23.2714386 45.70373535 C-23.28470795 42.07866944 -23.26471644 38.45335703 -23.21459961 34.82861328 C-23.15256477 29.2464504 -23.23416972 23.67908161 -23.33007812 18.09765625 C-23.32508229 14.58851859 -23.31169358 11.07938074 -23.2890625 7.5703125 C-23.27963623 4.34443359 -23.27020996 1.11855469 -23.26049805 -2.20507812 C-19.31905679 -17.72004853 -6.05423956 -9.82141087 0 0 Z " fill="#414042" transform="translate(451.46484375,126.2734375)"/>
<path d="M0 0 C-6.22222222 14 -6.22222222 14 -12 14 C-4.7014548 26.46093083 4.28203683 37.93005022 12.8125 49.5625 C22.35048809 62.84087558 -0.95623707 52.64453088 -5.125 47.625 C-7.09975828 44.42675017 -9.05719966 41.21776306 -11 38 C-13.34561667 34.68733085 -15.72006888 31.39486249 -18.125 28.125 C-23.8019802 20.2970297 -23.8019802 20.2970297 -26 17 C-41.21510392 15.3094329 -35.27602655 29.31429311 -34.38476562 41.08789062 C-33.3533789 64.03834155 -48.42914793 57.86197106 -49.3671875 38.15625 C-49.56658854 32.80267429 -49.71662806 27.45918662 -49.77294922 22.10205078 C-49.87489992 16.50549366 -50.22040352 10.95663714 -50.57421875 5.37109375 C-51.90337018 -35.0811807 0 -34.04134684 0 0 Z M-17 4 C-5.39719343 -4.70210493 -16.0893304 -10.01087998 -25.75 -11.1875 C-48.06712846 -8.32246324 -33.82922848 5.93308705 -17 4 Z " fill="#414042" transform="translate(198,139)"/>
<path d="M0 0 C1.39818441 3.55995548 2.80385593 7.11697472 4.21484375 10.671875 C5.79044212 14.69737695 7.36462269 18.72343408 8.9375 22.75 C9.72318359 24.75578125 10.50886719 26.7615625 11.31835938 28.828125 C15.00853002 38.26508021 24.75184066 89.51121146 8.578125 61.859375 C4 49.3357438 4 49.3357438 4 44 C-2.5333089 43.27796699 -2.5333089 43.27796699 -10.3125 43.25 C-12.96925781 43.17265625 -15.62601563 43.0953125 -18.36328125 43.015625 C-28.67642758 44.54529709 -27.44524249 50.91041336 -29.875 60.0625 C-42.40339696 83.86645422 -42.82645921 54.86034495 -38.0625 42.25 C-37.04784668 39.55360352 -37.04784668 39.55360352 -36.01269531 36.80273438 C-31.46465741 24.75961642 -26.79672776 12.77153368 -21.953125 0.84375 C-15.29202596 -15.67577561 -6.57180515 -18.03648713 0 0 Z M-9.9375 33.625 C4.44743176 31.00955786 -4.03781778 8 -11 8 C-21.93015701 25.90375011 -21.93015701 25.90375011 -9.9375 33.625 Z " fill="#414042" transform="translate(600,128)"/>
<path d="M0 0 C3.51914062 -0.02320312 3.51914062 -0.02320312 7.109375 -0.046875 C10.82960938 0.02273437 10.82960938 0.02273437 14.625 0.09375 C17.10515625 0.04734375 19.5853125 0.0009375 22.140625 -0.046875 C25.65976562 -0.02367188 25.65976562 -0.02367188 29.25 0 C31.42851562 0.01353516 33.60703125 0.02707031 35.8515625 0.04101562 C47.339501 3.77788596 42.64672618 15.11292099 30.65625 12.3125 C12.69044847 11.24898532 19.22311157 33.48304259 20.125 46.09375 C20.49981711 52.18452798 20.82577579 58.27858679 21.09375 64.375 C21.28388672 67.09814453 21.47402344 69.82128906 21.66992188 72.62695312 C18.69787985 89.59814637 7.31468023 76.42799071 8.15625 64.375 C8.28515625 61.44238281 8.4140625 58.50976562 8.546875 55.48828125 C8.93241432 49.22326724 9.34911184 42.96009323 9.796875 36.69921875 C11.40393297 14.67109399 11.40393297 14.67109399 -7.01757812 13.62304688 C-19.38496639 13.53989545 -10.67032167 0.0662949 0 0 Z " fill="#414042" transform="translate(269.375,115.40625)"/>
<path d="M0 0 C0.01148071 1.70909546 0.02296143 3.41819092 0.03479004 5.17907715 C0.04298131 8.80417153 0.02066005 12.42943983 -0.02929688 16.05419922 C-0.09350744 21.63516718 -0.03003764 27.20455281 0.046875 32.78515625 C0.03894573 36.29429666 0.0235719 39.8034298 0 43.3125 C-0.01353516 46.53837891 -0.02707031 49.76425781 -0.04101562 53.08789062 C-4.64639173 74.05248951 -15.1377874 55.16066974 -15.1875 43.3125 C-15.19898071 41.60340454 -15.21046143 39.89430908 -15.22229004 38.13342285 C-15.23048131 34.50832847 -15.20816005 30.88306017 -15.15820312 27.25830078 C-15.09399256 21.67733282 -15.15746236 16.10794719 -15.234375 10.52734375 C-15.22644573 7.01820334 -15.2110719 3.5090702 -15.1875 0 C-15.17396484 -3.22587891 -15.16042969 -6.45175781 -15.14648438 -9.77539062 C-10.54110827 -30.73998951 -0.0497126 -11.84816974 0 0 Z " fill="#414042" transform="translate(536.59375,133.84375)"/>
<path d="M0 0 C0.01148071 1.70909546 0.02296143 3.41819092 0.03479004 5.17907715 C0.04298131 8.80417153 0.02066005 12.42943983 -0.02929688 16.05419922 C-0.09350744 21.63516718 -0.03003764 27.20455281 0.046875 32.78515625 C0.03894573 36.29429666 0.0235719 39.8034298 0 43.3125 C-0.01353516 46.53837891 -0.02707031 49.76425781 -0.04101562 53.08789062 C-4.64639173 74.05248951 -15.1377874 55.16066974 -15.1875 43.3125 C-15.19898071 41.60340454 -15.21046143 39.89430908 -15.22229004 38.13342285 C-15.23048131 34.50832847 -15.20816005 30.88306017 -15.15820312 27.25830078 C-15.09399256 21.67733282 -15.15746236 16.10794719 -15.234375 10.52734375 C-15.22644573 7.01820334 -15.2110719 3.5090702 -15.1875 0 C-15.17396484 -3.22587891 -15.16042969 -6.45175781 -15.14648438 -9.77539062 C-10.54110827 -30.73998951 -0.0497126 -11.84816974 0 0 Z " fill="#414042" transform="translate(240.59375,133.84375)"/>
</svg>
