<?xml version="1.0" standalone="no"?>
<!DOCTYPE svg PUBLIC "-//W3C//DTD SVG 20010904//EN"
 "http://www.w3.org/TR/2001/REC-SVG-20010904/DTD/svg10.dtd">
<svg version="1.0" xmlns="http://www.w3.org/2000/svg"
 width="192" height="40" viewBox="0 0 700.000000 304.000000"
 preserveAspectRatio="xMidYMid meet">

<g transform="translate(0.000000,304.000000) scale(0.100000,-0.100000)"
fill="#000000" stroke="none">
<path d="M3471 1874 l-171 -177 0 -293 0 -294 120 0 119 0 3 245 3 245 135
135 c74 74 138 135 142 135 5 0 8 -171 8 -380 l0 -380 120 0 120 0 0 262 0
262 -207 208 c-114 114 -210 208 -214 208 -4 0 -84 -79 -178 -176z"/>
<path d="M770 1488 l0 -378 193 0 c222 0 246 7 313 83 93 106 87 235 -18 340
-54 55 -56 59 -46 88 15 45 5 123 -23 163 -43 64 -65 70 -252 76 l-167 5 0
-377z m311 259 c20 -15 39 -51 39 -72 0 -9 -13 -30 -29 -46 -28 -28 -33 -29
-125 -29 l-96 0 0 80 0 80 98 0 c60 -1 103 -5 113 -13z m85 -273 c48 -35 67
-70 67 -119 0 -52 -21 -87 -73 -122 -30 -21 -45 -23 -161 -23 l-129 0 0 146 0
146 134 -4 c117 -3 138 -6 162 -24z"/>
<path d="M5837 1863 c-3 -5 -66 -168 -140 -363 -75 -195 -139 -363 -143 -373
-6 -16 -1 -18 51 -15 l58 3 41 107 41 108 147 0 147 0 20 -55 c12 -30 30 -80
42 -110 l20 -55 55 0 c30 0 54 3 54 8 0 4 -64 175 -142 379 l-143 373 -52 0
c-28 0 -54 -3 -56 -7z m107 -289 c25 -67 46 -126 46 -133 0 -7 -32 -11 -100
-11 -55 0 -100 4 -100 8 0 8 68 189 91 241 5 13 11 22 13 20 2 -2 25 -58 50
-125z"/>
<path d="M1520 1485 l0 -375 50 0 50 0 2 193 3 192 49 0 49 0 132 -183 c73
-101 137 -188 142 -193 6 -6 36 -9 67 -7 l57 3 -141 195 -140 195 35 18 c96
49 121 191 49 277 -47 55 -67 60 -244 60 l-160 0 0 -375z m320 250 c33 -35 31
-81 -4 -112 -26 -22 -35 -23 -119 -21 l-92 3 -3 78 -3 77 99 0 c92 0 100 -2
122 -25z"/>
<path d="M2280 1485 l0 -375 50 0 50 0 0 375 0 375 -50 0 -50 0 0 -375z"/>
<path d="M2590 1810 l0 -50 100 0 100 0 0 -325 0 -325 50 0 50 0 0 325 0 325
100 0 100 0 0 50 0 50 -250 0 -250 0 0 -50z"/>
<path d="M4310 1485 l0 -375 55 0 55 0 2 282 3 282 190 -282 189 -282 58 0 58
0 0 375 0 375 -55 0 -55 0 -2 -281 -3 -282 -188 282 -187 281 -60 0 -60 0 0
-375z"/>
<path d="M5240 1485 l0 -375 55 0 55 0 0 375 0 375 -55 0 -55 0 0 -375z"/>
</g>
</svg>
